<svg width="1600" height="900" viewBox="0 0 1600 900" fill="none" xmlns="http://www.w3.org/2000/svg">
  <defs>
    <linearGradient id="bg" x1="120" y1="80" x2="1480" y2="820" gradientUnits="userSpaceOnUse">
      <stop stop-color="#FBF2E4"/>
      <stop offset="1" stop-color="#F0E1D0"/>
    </linearGradient>
    <linearGradient id="panel" x1="0" y1="0" x2="1" y2="1">
      <stop stop-color="#FFF9F2" stop-opacity="0.95"/>
      <stop offset="1" stop-color="#F8ECDE" stop-opacity="0.95"/>
    </linearGradient>
    <linearGradient id="accent" x1="0" y1="0" x2="1" y2="1">
      <stop stop-color="#C65D1B"/>
      <stop offset="1" stop-color="#7C2D12"/>
    </linearGradient>
    <filter id="shadow" x="-20%" y="-20%" width="140%" height="140%">
      <feDropShadow dx="0" dy="18" stdDeviation="22" flood-color="#A56A3A" flood-opacity="0.14"/>
    </filter>
  </defs>

  <rect width="1600" height="900" rx="40" fill="url(#bg)"/>
  <circle cx="1320" cy="140" r="180" fill="#F3D5BC" opacity="0.7"/>
  <circle cx="220" cy="760" r="210" fill="#E7D9FF" opacity="0.48"/>

  <rect x="84" y="72" width="1432" height="756" rx="34" fill="#FFFFFF" fill-opacity="0.28" stroke="#D9C5B0"/>

  <g filter="url(#shadow)">
    <rect x="116" y="112" width="1368" height="206" rx="28" fill="url(#panel)" stroke="#D9C5B0"/>
  </g>
  <rect x="150" y="146" width="150" height="38" rx="19" fill="#F1D7BF"/>
  <text x="225" y="171" text-anchor="middle" fill="#7C2D12" font-family="Georgia, 'Times New Roman', serif" font-size="18" letter-spacing="2">NAACL 2024</text>
  <text x="150" y="234" fill="#1F1A17" font-family="Georgia, 'Times New Roman', serif" font-size="74" font-weight="700">OSCaR</text>
  <text x="152" y="274" fill="#5E5044" font-family="Georgia, 'Times New Roman', serif" font-size="26">Object State Captioning and</text>
  <text x="152" y="305" fill="#5E5044" font-family="Georgia, 'Times New Roman', serif" font-size="26">State Change Representation for egocentric video</text>

  <g>
    <rect x="980" y="140" width="210" height="58" rx="16" fill="#FFF7ED" stroke="#D9C5B0"/>
    <text x="1085" y="176" text-anchor="middle" fill="#1F1A17" font-family="Arial, Helvetica, sans-serif" font-size="22" font-weight="700">14,084 segments</text>
    <rect x="1210" y="140" width="224" height="58" rx="16" fill="#FFF7ED" stroke="#D9C5B0"/>
    <text x="1322" y="176" text-anchor="middle" fill="#1F1A17" font-family="Arial, Helvetica, sans-serif" font-size="22" font-weight="700">500 benchmark videos</text>
    <rect x="980" y="216" width="210" height="58" rx="16" fill="#FFF7ED" stroke="#D9C5B0"/>
    <text x="1085" y="252" text-anchor="middle" fill="#1F1A17" font-family="Arial, Helvetica, sans-serif" font-size="22" font-weight="700">28,308 entries</text>
    <rect x="1210" y="216" width="224" height="58" rx="16" fill="#FFF7ED" stroke="#D9C5B0"/>
    <text x="1322" y="252" text-anchor="middle" fill="#1F1A17" font-family="Arial, Helvetica, sans-serif" font-size="22" font-weight="700">LLaVA 1.5 + Vicuna</text>
  </g>

  <g filter="url(#shadow)">
    <rect x="116" y="364" width="360" height="368" rx="28" fill="url(#panel)" stroke="#D9C5B0"/>
    <rect x="520" y="364" width="560" height="368" rx="28" fill="url(#panel)" stroke="#D9C5B0"/>
    <rect x="1124" y="364" width="360" height="368" rx="28" fill="url(#panel)" stroke="#D9C5B0"/>
  </g>

  <text x="148" y="414" fill="#7C2D12" font-family="Arial, Helvetica, sans-serif" font-size="18" font-weight="700" letter-spacing="1.6">SOURCE DATASETS</text>
  <text x="552" y="414" fill="#7C2D12" font-family="Arial, Helvetica, sans-serif" font-size="18" font-weight="700" letter-spacing="1.6">OSCAR PIPELINE</text>
  <text x="1156" y="414" fill="#7C2D12" font-family="Arial, Helvetica, sans-serif" font-size="18" font-weight="700" letter-spacing="1.6">PUBLIC RELEASE</text>

  <rect x="148" y="444" width="296" height="104" rx="22" fill="#FFF8F0" stroke="#D9C5B0"/>
  <text x="178" y="483" fill="#1F1A17" font-family="Georgia, 'Times New Roman', serif" font-size="34" font-weight="700">EPIC-KITCHENS</text>
  <text x="178" y="521" fill="#5E5044" font-family="Arial, Helvetica, sans-serif" font-size="21">egocentric action data and</text>
  <text x="178" y="548" fill="#5E5044" font-family="Arial, Helvetica, sans-serif" font-size="21">human-verified benchmark split</text>

  <rect x="148" y="574" width="296" height="104" rx="22" fill="#FFF8F0" stroke="#D9C5B0"/>
  <text x="178" y="613" fill="#1F1A17" font-family="Georgia, 'Times New Roman', serif" font-size="34" font-weight="700">Ego4D</text>
  <text x="178" y="651" fill="#5E5044" font-family="Arial, Helvetica, sans-serif" font-size="21">open-world and additional</text>
  <text x="178" y="678" fill="#5E5044" font-family="Arial, Helvetica, sans-serif" font-size="21">state-change coverage</text>

  <rect x="552" y="444" width="496" height="86" rx="20" fill="#FFF8F0" stroke="#D9C5B0"/>
  <text x="582" y="483" fill="#1F1A17" font-family="Arial, Helvetica, sans-serif" font-size="24" font-weight="700">Frame composites +</text>
  <text x="582" y="514" fill="#1F1A17" font-family="Arial, Helvetica, sans-serif" font-size="24" font-weight="700">state-change captions</text>
  <rect x="552" y="548" width="496" height="86" rx="20" fill="#FFF8F0" stroke="#D9C5B0"/>
  <text x="582" y="587" fill="#1F1A17" font-family="Arial, Helvetica, sans-serif" font-size="24" font-weight="700">LLaVA fine-tuning</text>
  <text x="582" y="618" fill="#1F1A17" font-family="Arial, Helvetica, sans-serif" font-size="24" font-weight="700">manifests + eval splits</text>
  <rect x="552" y="650" width="496" height="70" rx="20" fill="url(#accent)"/>
  <text x="582" y="694" fill="#FFF8F0" font-family="Arial, Helvetica, sans-serif" font-size="24" font-weight="700">LoRA adapters + projector checkpoints</text>

  <rect x="1156" y="444" width="296" height="86" rx="22" fill="#FFF8F0" stroke="#D9C5B0"/>
  <text x="1186" y="482" fill="#1F1A17" font-family="Arial, Helvetica, sans-serif" font-size="28" font-weight="700">GitHub code</text>
  <text x="1186" y="514" fill="#5E5044" font-family="Arial, Helvetica, sans-serif" font-size="18">train, infer, eval, data prep, docs</text>

  <rect x="1156" y="548" width="296" height="86" rx="22" fill="#FFF8F0" stroke="#D9C5B0"/>
  <text x="1186" y="586" fill="#1F1A17" font-family="Arial, Helvetica, sans-serif" font-size="28" font-weight="700">HF dataset</text>
  <text x="1186" y="618" fill="#5E5044" font-family="Arial, Helvetica, sans-serif" font-size="18">assets, manifests, metadata, splits</text>

  <rect x="1156" y="652" width="296" height="86" rx="22" fill="#FFF8F0" stroke="#D9C5B0"/>
  <text x="1186" y="690" fill="#1F1A17" font-family="Arial, Helvetica, sans-serif" font-size="28" font-weight="700">HF models</text>
  <text x="1186" y="722" fill="#5E5044" font-family="Arial, Helvetica, sans-serif" font-size="18">7B / 13B adapters and projectors</text>

  <path d="M444 497H506C528 497 528 497 548 497" stroke="#9A3412" stroke-width="8" stroke-linecap="round"/>
  <path d="M444 626H506C528 626 528 626 548 626" stroke="#9A3412" stroke-width="8" stroke-linecap="round"/>
  <path d="M1048 591H1110C1132 591 1132 591 1148 591" stroke="#9A3412" stroke-width="8" stroke-linecap="round"/>

  <text x="800" y="800" text-anchor="middle" fill="#5E5044" font-family="Arial, Helvetica, sans-serif" font-size="22">
    Accepted NAACL paper, code, dataset, and model release for object state captioning in egocentric video
  </text>
</svg>
